# xmcd
#
# Track frame offsets:
#	150
#	32700
#	66450
#	92470
#	123820
#
# Disc length: 2037 seconds
#
# Revision: 1
# Processed by: cddbd v1.5PL3 Copyright (c) Steve Scherf et al.
# Submitted via: CDex 1.50Beta5
#
DISCID=3907f305
DTITLE=ぐるぐるパンダ - Siesta
DYEAR=1900
DGENRE=
TTITLE0=G2PD/Hatsune - FANTAWINE Mix
TTITLE1=G2PD/Azusa - Yogusominebari 2nd MIX
TTITLE2=G2PD/Chidzuru - Block the Block mix
TTITLE3=G2PD/Kaede - Wipemania mix
TTITLE4=GEH-DREI/G2PD/ONIKAGURA - OGREISH WALK Mix
EXTD=
EXTT0=
EXTT1=
EXTT2=
EXTT3=
EXTT4=
PLAYORDER=
